<?xml version="1.0" encoding="UTF-8"?><svg xmlns="http://www.w3.org/2000/svg" xmlns:xlink="http://www.w3.org/1999/xlink" fill-opacity="1" color-rendering="auto" color-interpolation="auto" text-rendering="auto" stroke="black" stroke-linecap="square" width="379" stroke-miterlimit="10" shape-rendering="auto" stroke-opacity="1" fill="black" stroke-dasharray="none" font-weight="normal" stroke-width="1" height="467" font-family="'Dialog'" font-style="normal" stroke-linejoin="miter" font-size="12px" stroke-dashoffset="0" image-rendering="auto">
  <!--Generated by ySVG 2.5-->
  <defs id="genericDefs"/>
  <g>
    <defs id="defs1">
      <clipPath clipPathUnits="userSpaceOnUse" id="clipPath1">
        <path d="M0 0 L379 0 L379 467 L0 467 L0 0 Z"/>
      </clipPath>
      <clipPath clipPathUnits="userSpaceOnUse" id="clipPath2">
        <path d="M441 -37 L820 -37 L820 430 L441 430 L441 -37 Z"/>
      </clipPath>
    </defs>
    <g fill="white" text-rendering="geometricPrecision" shape-rendering="geometricPrecision" transform="translate(-441,37)" stroke="white">
      <rect x="441" width="379" height="467" y="-37" clip-path="url(#clipPath2)" stroke="none"/>
    </g>
    <g fill="rgb(245,245,245)" text-rendering="geometricPrecision" shape-rendering="geometricPrecision" transform="matrix(1,0,0,1,-441,37)" stroke="rgb(245,245,245)">
      <rect x="449.4268" y="-30.9219" clip-path="url(#clipPath2)" width="365.5732" rx="4" ry="4" height="117.9219" stroke="none"/>
      <rect x="449.4268" y="-30.9219" clip-path="url(#clipPath2)" fill="rgb(235,235,235)" width="365.5732" height="21.4609" stroke="none"/>
    </g>
    <g font-size="15px" stroke-linecap="butt" transform="matrix(1,0,0,1,-441,37)" text-rendering="geometricPrecision" font-family="sans-serif" shape-rendering="geometricPrecision" stroke-miterlimit="1.45">
      <text x="802.7095" xml:space="preserve" y="-14.9985" clip-path="url(#clipPath2)" stroke="none">B</text>
      <rect x="449.4268" y="-30.9219" clip-path="url(#clipPath2)" fill="none" width="365.5732" stroke-dasharray="6,2" rx="4" ry="4" height="117.9219"/>
      <circle fill="none" r="15" clip-path="url(#clipPath2)" cx="489" cy="57"/>
      <text x="466.4268" xml:space="preserve" font-size="12px" y="23.1543" clip-path="url(#clipPath2)" stroke="none">[p'¹, p²]</text>
      <circle fill="none" r="15" clip-path="url(#clipPath2)" cx="565.5" cy="57"/>
      <text x="542.9268" xml:space="preserve" font-size="12px" y="23.1543" clip-path="url(#clipPath2)" stroke="none">[p'², p³]</text>
      <circle fill="none" r="15" clip-path="url(#clipPath2)" cx="642" cy="57"/>
      <text x="619.4268" xml:space="preserve" font-size="12px" y="23.1543" clip-path="url(#clipPath2)" stroke="none">[p'³, p¹]</text>
    </g>
    <g fill="rgb(225,225,225)" text-rendering="geometricPrecision" shape-rendering="geometricPrecision" transform="matrix(1,0,0,1,-441,37)" stroke="rgb(225,225,225)">
      <rect x="688" y="5.5391" clip-path="url(#clipPath2)" width="80.5" rx="4" ry="4" height="50" stroke="none"/>
      <rect x="688" y="5.5391" clip-path="url(#clipPath2)" fill="rgb(235,235,235)" width="80.5" height="21.4609" stroke="none"/>
    </g>
    <g font-size="15px" stroke-linecap="butt" transform="matrix(1,0,0,1,-441,37)" text-rendering="geometricPrecision" font-family="sans-serif" shape-rendering="geometricPrecision" stroke-miterlimit="1.45">
      <text x="725.2134" xml:space="preserve" y="21.4624" clip-path="url(#clipPath2)" stroke="none">Q,R,S</text>
      <rect x="688" y="5.5391" clip-path="url(#clipPath2)" fill="none" width="80.5" stroke-dasharray="6,2" rx="4" ry="4" height="50"/>
      <path fill="none" d="M504 57 L550.5 57" clip-path="url(#clipPath2)"/>
      <path fill="none" d="M580.5 57 L627 57" clip-path="url(#clipPath2)"/>
      <path fill="none" d="M500.6417 47.5411 L569 -8 L630.7973 47.025" clip-path="url(#clipPath2)"/>
      <path fill="none" d="M657 57 L677.5 57 L677.5 37.1253 L687.9573 37.1253" clip-path="url(#clipPath2)"/>
      <path fill="none" d="M575.524 45.8412 L645 -31.5 L690.3444 5.8787" clip-path="url(#clipPath2)"/>
      <path fill="none" d="M499.6394 46.4263 L570 -23.5 L688.0403 19.882" clip-path="url(#clipPath2)"/>
    </g>
    <g fill="rgb(245,245,245)" text-rendering="geometricPrecision" shape-rendering="geometricPrecision" transform="matrix(1,0,0,1,-441,37)" stroke="rgb(245,245,245)">
      <rect x="449.4268" y="122.5547" clip-path="url(#clipPath2)" width="365.5732" rx="4" ry="4" height="123.4453" stroke="none"/>
      <rect x="449.4268" y="122.5547" clip-path="url(#clipPath2)" fill="rgb(235,235,235)" width="365.5732" height="21.4609" stroke="none"/>
    </g>
    <g font-size="15px" stroke-linecap="butt" transform="matrix(1,0,0,1,-441,37)" text-rendering="geometricPrecision" font-family="sans-serif" shape-rendering="geometricPrecision" stroke-miterlimit="1.45">
      <text x="802.7388" xml:space="preserve" y="138.478" clip-path="url(#clipPath2)" stroke="none">A</text>
      <rect x="449.4268" y="122.5547" clip-path="url(#clipPath2)" fill="none" width="365.5732" stroke-dasharray="6,2" rx="4" ry="4" height="123.4453"/>
      <circle fill="none" r="15" clip-path="url(#clipPath2)" cx="489" cy="206"/>
      <text x="466.4268" xml:space="preserve" font-size="12px" y="172.1543" clip-path="url(#clipPath2)" stroke="none">[p¹, p'¹]</text>
      <circle fill="none" r="15" clip-path="url(#clipPath2)" cx="565.5" cy="206"/>
      <text x="542.9268" xml:space="preserve" font-size="12px" y="172.1543" clip-path="url(#clipPath2)" stroke="none">[p², p'²]</text>
      <circle fill="none" r="15" clip-path="url(#clipPath2)" cx="642" cy="206"/>
      <text x="619.4268" xml:space="preserve" font-size="12px" y="172.1543" clip-path="url(#clipPath2)" stroke="none">[p³, p'³]</text>
    </g>
    <g fill="rgb(225,225,225)" text-rendering="geometricPrecision" shape-rendering="geometricPrecision" transform="matrix(1,0,0,1,-441,37)" stroke="rgb(225,225,225)">
      <rect x="687" y="181" clip-path="url(#clipPath2)" width="81.5" rx="4" ry="4" height="50" stroke="none"/>
      <rect x="687" y="181" clip-path="url(#clipPath2)" fill="rgb(235,235,235)" width="81.5" height="21.4609" stroke="none"/>
    </g>
    <g font-size="15px" stroke-linecap="butt" transform="matrix(1,0,0,1,-441,37)" text-rendering="geometricPrecision" font-family="sans-serif" shape-rendering="geometricPrecision" stroke-miterlimit="1.45">
      <text x="725.2134" xml:space="preserve" y="196.9233" clip-path="url(#clipPath2)" stroke="none">Q,R,S</text>
      <rect x="687" y="181" clip-path="url(#clipPath2)" fill="none" width="81.5" stroke-dasharray="6,2" rx="4" ry="4" height="50"/>
      <path fill="none" d="M631.2538 67.4652 L499.7462 195.5348" clip-path="url(#clipPath2)"/>
      <path fill="none" d="M489 72 L489 191" clip-path="url(#clipPath2)"/>
      <path fill="none" d="M501.2547 197.35 L702.1755 55.53" clip-path="url(#clipPath2)"/>
      <path fill="none" d="M495.8511 192.656 L558.6489 70.344" clip-path="url(#clipPath2)"/>
      <path fill="none" d="M504 206 L550.5 206" clip-path="url(#clipPath2)"/>
      <path fill="none" d="M565.5 72 L565.5 191" clip-path="url(#clipPath2)"/>
      <path fill="none" d="M495.8511 70.344 L558.6489 192.656" clip-path="url(#clipPath2)"/>
      <path fill="none" d="M635.1489 70.344 L572.3511 192.656" clip-path="url(#clipPath2)"/>
      <path fill="none" d="M575.9089 195.1994 L710.4905 55.5531" clip-path="url(#clipPath2)"/>
      <path fill="none" d="M580.5 206 L627 206" clip-path="url(#clipPath2)"/>
      <path fill="none" d="M499.7462 67.4652 L631.2538 195.5348" clip-path="url(#clipPath2)"/>
      <path fill="none" d="M642 72 L642 191" clip-path="url(#clipPath2)"/>
      <path fill="none" d="M503.0861 211.1557 L565.5 234 L627.9139 211.1557" clip-path="url(#clipPath2)"/>
      <path fill="none" d="M648.8227 192.6414 L718.8452 55.5397" clip-path="url(#clipPath2)"/>
      <path fill="none" d="M649.482 70.0008 L713.3614 180.9982" clip-path="url(#clipPath2)"/>
      <path fill="none" d="M657 206 L687.0204 206" clip-path="url(#clipPath2)"/>
      <path fill="none" d="M576.5481 67.1459 L700.5255 180.9988" clip-path="url(#clipPath2)"/>
      <path fill="none" d="M501.7252 64.9416 L688.764 181.6695" clip-path="url(#clipPath2)"/>
      <path fill="none" d="M579.2777 211.9308 L641 238.5 L686.9589 221.282" clip-path="url(#clipPath2)"/>
      <path fill="none" d="M502.8195 211.8329 L566 238.5 L686.9952 211.9113" clip-path="url(#clipPath2)"/>
    </g>
    <g fill="rgb(245,245,245)" text-rendering="geometricPrecision" shape-rendering="geometricPrecision" transform="matrix(1,0,0,1,-441,37)" stroke="rgb(245,245,245)">
      <rect x="446.2041" y="272.0781" clip-path="url(#clipPath2)" width="366.8096" rx="4" ry="4" height="152.9062" stroke="none"/>
      <rect x="446.2041" y="272.0781" clip-path="url(#clipPath2)" fill="rgb(235,235,235)" width="366.8096" height="21.4609" stroke="none"/>
    </g>
    <g font-size="15px" stroke-linecap="butt" transform="matrix(1,0,0,1,-441,37)" text-rendering="geometricPrecision" font-family="sans-serif" shape-rendering="geometricPrecision" stroke-miterlimit="1.45">
      <text x="800.54" xml:space="preserve" y="288.0015" clip-path="url(#clipPath2)" stroke="none">C</text>
      <rect x="446.2041" y="272.0781" clip-path="url(#clipPath2)" fill="none" width="366.8096" stroke-dasharray="6,2" rx="4" ry="4" height="152.9062"/>
      <circle fill="none" r="15" clip-path="url(#clipPath2)" cx="642" cy="359"/>
      <text x="612.2461" xml:space="preserve" font-size="12px" y="405.1543" clip-path="url(#clipPath2)" stroke="none">[p'³,q'³,s¹]</text>
      <circle fill="none" r="15" clip-path="url(#clipPath2)" cx="565.5" cy="359"/>
      <text x="538.0547" xml:space="preserve" font-size="12px" y="405.1543" clip-path="url(#clipPath2)" stroke="none">[p'²,q²,r²]</text>
      <circle fill="none" r="15" clip-path="url(#clipPath2)" cx="489" cy="359"/>
      <text x="463.2041" xml:space="preserve" font-size="12px" y="405.1543" clip-path="url(#clipPath2)" stroke="none">[p¹,q¹,r¹]</text>
      <path fill="none" d="M642 344 L642 221" clip-path="url(#clipPath2)"/>
      <path fill="none" d="M635.2918 345.5836 L572.2082 219.4164" clip-path="url(#clipPath2)"/>
      <path fill="none" d="M631.3934 348.3934 L499.6066 216.6066" clip-path="url(#clipPath2)"/>
      <path fill="none" d="M649.3336 345.9149 L713.7552 230.9702" clip-path="url(#clipPath2)"/>
      <path fill="none" d="M558.7918 345.5836 L495.7082 219.4164" clip-path="url(#clipPath2)"/>
      <path fill="none" d="M565.5 344 L565.5 221" clip-path="url(#clipPath2)"/>
      <path fill="none" d="M572.2082 345.5836 L635.2918 219.4164" clip-path="url(#clipPath2)"/>
      <path fill="none" d="M580.5 359 L627 359" clip-path="url(#clipPath2)"/>
      <path fill="none" d="M576.4131 348.709 L701.2402 230.9985" clip-path="url(#clipPath2)"/>
      <path fill="none" d="M550.5 359 L504 359" clip-path="url(#clipPath2)"/>
      <path fill="none" d="M489 344 L489 221" clip-path="url(#clipPath2)"/>
      <path fill="none" d="M495.7082 345.5836 L558.7918 219.4164" clip-path="url(#clipPath2)"/>
      <path fill="none" d="M499.6066 348.3934 L631.3934 216.6066" clip-path="url(#clipPath2)"/>
      <path fill="none" d="M502.4339 352.3269 L565.5 321 L628.5661 352.3269" clip-path="url(#clipPath2)"/>
      <path fill="none" d="M501.6293 350.9067 L689.2996 230.6405" clip-path="url(#clipPath2)"/>
    </g>
  </g>
</svg>
