<?xml version="1.0" encoding="UTF-8"?><svg xmlns="http://www.w3.org/2000/svg" xmlns:xlink="http://www.w3.org/1999/xlink" fill-opacity="1" color-rendering="auto" color-interpolation="auto" text-rendering="auto" stroke="black" stroke-linecap="square" width="796" stroke-miterlimit="10" shape-rendering="auto" stroke-opacity="1" fill="black" stroke-dasharray="none" font-weight="normal" stroke-width="1" height="406" font-family="'Dialog'" font-style="normal" stroke-linejoin="miter" font-size="12px" stroke-dashoffset="0" image-rendering="auto">
  <!--Generated by ySVG 2.5-->
  <defs id="genericDefs"/>
  <g>
    <defs id="defs1">
      <clipPath clipPathUnits="userSpaceOnUse" id="clipPath1">
        <path d="M0 0 L796 0 L796 406 L0 406 L0 0 Z"/>
      </clipPath>
      <clipPath clipPathUnits="userSpaceOnUse" id="clipPath2">
        <path d="M82 112 L878 112 L878 518 L82 518 L82 112 Z"/>
      </clipPath>
    </defs>
    <g fill="white" text-rendering="geometricPrecision" shape-rendering="geometricPrecision" transform="matrix(1,0,0,1,-82,-112)" stroke="white">
      <circle r="22.5" clip-path="url(#clipPath2)" cx="480" cy="150" stroke="none"/>
    </g>
    <g text-rendering="geometricPrecision" stroke-miterlimit="1.45" shape-rendering="geometricPrecision" transform="matrix(1,0,0,1,-82,-112)" stroke-linecap="butt">
      <circle fill="none" r="22.5" clip-path="url(#clipPath2)" cx="480" cy="150"/>
      <text x="476.5254" xml:space="preserve" y="154.1543" clip-path="url(#clipPath2)" font-family="sans-serif" stroke="none">k</text>
    </g>
    <g fill="white" text-rendering="geometricPrecision" shape-rendering="geometricPrecision" transform="matrix(1,0,0,1,-82,-112)" stroke="white">
      <circle r="22.5" clip-path="url(#clipPath2)" cx="480" cy="270" stroke="none"/>
    </g>
    <g text-rendering="geometricPrecision" stroke-miterlimit="1.45" shape-rendering="geometricPrecision" transform="matrix(1,0,0,1,-82,-112)" stroke-linecap="butt">
      <circle fill="none" r="22.5" clip-path="url(#clipPath2)" cx="480" cy="270"/>
      <text x="470.543" xml:space="preserve" y="274.1543" clip-path="url(#clipPath2)" font-family="sans-serif" stroke="none">k-1</text>
    </g>
    <g fill="white" text-rendering="geometricPrecision" shape-rendering="geometricPrecision" transform="matrix(1,0,0,1,-82,-112)" stroke="white">
      <circle r="22.5" clip-path="url(#clipPath2)" cx="210" cy="270" stroke="none"/>
    </g>
    <g text-rendering="geometricPrecision" stroke-miterlimit="1.45" shape-rendering="geometricPrecision" transform="matrix(1,0,0,1,-82,-112)" stroke-linecap="butt">
      <circle fill="none" r="22.5" clip-path="url(#clipPath2)" cx="210" cy="270"/>
      <text x="200.543" xml:space="preserve" y="274.1543" clip-path="url(#clipPath2)" font-family="sans-serif" stroke="none">k-1</text>
    </g>
    <g fill="white" text-rendering="geometricPrecision" shape-rendering="geometricPrecision" transform="matrix(1,0,0,1,-82,-112)" stroke="white">
      <circle r="22.5" clip-path="url(#clipPath2)" cx="750" cy="270" stroke="none"/>
    </g>
    <g text-rendering="geometricPrecision" stroke-miterlimit="1.45" shape-rendering="geometricPrecision" transform="matrix(1,0,0,1,-82,-112)" stroke-linecap="butt">
      <circle fill="none" r="22.5" clip-path="url(#clipPath2)" cx="750" cy="270"/>
      <text x="740.543" xml:space="preserve" y="274.1543" clip-path="url(#clipPath2)" font-family="sans-serif" stroke="none">k-1</text>
    </g>
    <g fill="white" text-rendering="geometricPrecision" shape-rendering="geometricPrecision" transform="matrix(1,0,0,1,-82,-112)" stroke="white">
      <circle r="22.5" clip-path="url(#clipPath2)" cx="210" cy="390" stroke="none"/>
    </g>
    <g text-rendering="geometricPrecision" stroke-miterlimit="1.45" shape-rendering="geometricPrecision" transform="matrix(1,0,0,1,-82,-112)" stroke-linecap="butt">
      <circle fill="none" r="22.5" clip-path="url(#clipPath2)" cx="210" cy="390"/>
      <text x="200.543" xml:space="preserve" y="394.1543" clip-path="url(#clipPath2)" font-family="sans-serif" stroke="none">k-2</text>
    </g>
    <g fill="white" text-rendering="geometricPrecision" shape-rendering="geometricPrecision" transform="matrix(1,0,0,1,-82,-112)" stroke="white">
      <circle r="22.5" clip-path="url(#clipPath2)" cx="120" cy="390" stroke="none"/>
    </g>
    <g text-rendering="geometricPrecision" stroke-miterlimit="1.45" shape-rendering="geometricPrecision" transform="matrix(1,0,0,1,-82,-112)" stroke-linecap="butt">
      <circle fill="none" r="22.5" clip-path="url(#clipPath2)" cx="120" cy="390"/>
      <text x="110.543" xml:space="preserve" y="394.1543" clip-path="url(#clipPath2)" font-family="sans-serif" stroke="none">k-2</text>
    </g>
    <g fill="white" text-rendering="geometricPrecision" shape-rendering="geometricPrecision" transform="matrix(1,0,0,1,-82,-112)" stroke="white">
      <circle r="22.5" clip-path="url(#clipPath2)" cx="300" cy="390" stroke="none"/>
    </g>
    <g text-rendering="geometricPrecision" stroke-miterlimit="1.45" shape-rendering="geometricPrecision" transform="matrix(1,0,0,1,-82,-112)" stroke-linecap="butt">
      <circle fill="none" r="22.5" clip-path="url(#clipPath2)" cx="300" cy="390"/>
      <text x="290.543" xml:space="preserve" y="394.1543" clip-path="url(#clipPath2)" font-family="sans-serif" stroke="none">k-2</text>
    </g>
    <g fill="white" text-rendering="geometricPrecision" shape-rendering="geometricPrecision" transform="matrix(1,0,0,1,-82,-112)" stroke="white">
      <circle r="22.5" clip-path="url(#clipPath2)" cx="480" cy="390" stroke="none"/>
    </g>
    <g text-rendering="geometricPrecision" stroke-miterlimit="1.45" shape-rendering="geometricPrecision" transform="matrix(1,0,0,1,-82,-112)" stroke-linecap="butt">
      <circle fill="none" r="22.5" clip-path="url(#clipPath2)" cx="480" cy="390"/>
      <text x="470.543" xml:space="preserve" y="394.1543" clip-path="url(#clipPath2)" font-family="sans-serif" stroke="none">k-2</text>
    </g>
    <g fill="white" text-rendering="geometricPrecision" shape-rendering="geometricPrecision" transform="matrix(1,0,0,1,-82,-112)" stroke="white">
      <circle r="22.5" clip-path="url(#clipPath2)" cx="390" cy="390" stroke="none"/>
    </g>
    <g text-rendering="geometricPrecision" stroke-miterlimit="1.45" shape-rendering="geometricPrecision" transform="matrix(1,0,0,1,-82,-112)" stroke-linecap="butt">
      <circle fill="none" r="22.5" clip-path="url(#clipPath2)" cx="390" cy="390"/>
      <text x="380.543" xml:space="preserve" y="394.1543" clip-path="url(#clipPath2)" font-family="sans-serif" stroke="none">k-2</text>
    </g>
    <g fill="white" text-rendering="geometricPrecision" shape-rendering="geometricPrecision" transform="matrix(1,0,0,1,-82,-112)" stroke="white">
      <circle r="22.5" clip-path="url(#clipPath2)" cx="570" cy="390" stroke="none"/>
    </g>
    <g text-rendering="geometricPrecision" stroke-miterlimit="1.45" shape-rendering="geometricPrecision" transform="matrix(1,0,0,1,-82,-112)" stroke-linecap="butt">
      <circle fill="none" r="22.5" clip-path="url(#clipPath2)" cx="570" cy="390"/>
      <text x="560.543" xml:space="preserve" y="394.1543" clip-path="url(#clipPath2)" font-family="sans-serif" stroke="none">k-2</text>
    </g>
    <g fill="white" text-rendering="geometricPrecision" shape-rendering="geometricPrecision" transform="matrix(1,0,0,1,-82,-112)" stroke="white">
      <circle r="22.5" clip-path="url(#clipPath2)" cx="750" cy="390" stroke="none"/>
    </g>
    <g text-rendering="geometricPrecision" stroke-miterlimit="1.45" shape-rendering="geometricPrecision" transform="matrix(1,0,0,1,-82,-112)" stroke-linecap="butt">
      <circle fill="none" r="22.5" clip-path="url(#clipPath2)" cx="750" cy="390"/>
      <text x="740.543" xml:space="preserve" y="394.1543" clip-path="url(#clipPath2)" font-family="sans-serif" stroke="none">k-2</text>
    </g>
    <g fill="white" text-rendering="geometricPrecision" shape-rendering="geometricPrecision" transform="matrix(1,0,0,1,-82,-112)" stroke="white">
      <circle r="22.5" clip-path="url(#clipPath2)" cx="660" cy="390" stroke="none"/>
    </g>
    <g text-rendering="geometricPrecision" stroke-miterlimit="1.45" shape-rendering="geometricPrecision" transform="matrix(1,0,0,1,-82,-112)" stroke-linecap="butt">
      <circle fill="none" r="22.5" clip-path="url(#clipPath2)" cx="660" cy="390"/>
      <text x="650.543" xml:space="preserve" y="394.1543" clip-path="url(#clipPath2)" font-family="sans-serif" stroke="none">k-2</text>
    </g>
    <g fill="white" text-rendering="geometricPrecision" shape-rendering="geometricPrecision" transform="matrix(1,0,0,1,-82,-112)" stroke="white">
      <circle r="22.5" clip-path="url(#clipPath2)" cx="840" cy="390" stroke="none"/>
    </g>
    <g text-rendering="geometricPrecision" stroke-miterlimit="1.45" shape-rendering="geometricPrecision" transform="matrix(1,0,0,1,-82,-112)" stroke-linecap="butt">
      <circle fill="none" r="22.5" clip-path="url(#clipPath2)" cx="840" cy="390"/>
      <text x="830.543" xml:space="preserve" y="394.1543" clip-path="url(#clipPath2)" font-family="sans-serif" stroke="none">k-2</text>
    </g>
    <g fill="white" text-rendering="geometricPrecision" shape-rendering="geometricPrecision" transform="matrix(1,0,0,1,-82,-112)" stroke="white">
      <circle r="22.5" clip-path="url(#clipPath2)" cx="210" cy="480" stroke="none"/>
    </g>
    <g text-rendering="geometricPrecision" stroke-miterlimit="1.45" shape-rendering="geometricPrecision" transform="matrix(1,0,0,1,-82,-112)" stroke-linecap="butt">
      <circle fill="none" r="22.5" clip-path="url(#clipPath2)" cx="210" cy="480"/>
      <text x="200.8857" xml:space="preserve" y="484.1543" clip-path="url(#clipPath2)" font-family="sans-serif" stroke="none">k-k</text>
    </g>
    <g fill="white" text-rendering="geometricPrecision" shape-rendering="geometricPrecision" transform="matrix(1,0,0,1,-82,-112)" stroke="white">
      <circle r="22.5" clip-path="url(#clipPath2)" cx="120" cy="480" stroke="none"/>
    </g>
    <g text-rendering="geometricPrecision" stroke-miterlimit="1.45" shape-rendering="geometricPrecision" transform="matrix(1,0,0,1,-82,-112)" stroke-linecap="butt">
      <circle fill="none" r="22.5" clip-path="url(#clipPath2)" cx="120" cy="480"/>
      <text x="110.8857" xml:space="preserve" y="484.1543" clip-path="url(#clipPath2)" font-family="sans-serif" stroke="none">k-k</text>
    </g>
    <g fill="white" text-rendering="geometricPrecision" shape-rendering="geometricPrecision" transform="matrix(1,0,0,1,-82,-112)" stroke="white">
      <circle r="22.5" clip-path="url(#clipPath2)" cx="300" cy="480" stroke="none"/>
    </g>
    <g text-rendering="geometricPrecision" stroke-miterlimit="1.45" shape-rendering="geometricPrecision" transform="matrix(1,0,0,1,-82,-112)" stroke-linecap="butt">
      <circle fill="none" r="22.5" clip-path="url(#clipPath2)" cx="300" cy="480"/>
      <text x="290.8857" xml:space="preserve" y="484.1543" clip-path="url(#clipPath2)" font-family="sans-serif" stroke="none">k-k</text>
    </g>
    <g fill="white" text-rendering="geometricPrecision" shape-rendering="geometricPrecision" transform="matrix(1,0,0,1,-82,-112)" stroke="white">
      <circle r="22.5" clip-path="url(#clipPath2)" cx="480" cy="480" stroke="none"/>
    </g>
    <g text-rendering="geometricPrecision" stroke-miterlimit="1.45" shape-rendering="geometricPrecision" transform="matrix(1,0,0,1,-82,-112)" stroke-linecap="butt">
      <circle fill="none" r="22.5" clip-path="url(#clipPath2)" cx="480" cy="480"/>
      <text x="470.8857" xml:space="preserve" y="484.1543" clip-path="url(#clipPath2)" font-family="sans-serif" stroke="none">k-k</text>
    </g>
    <g fill="white" text-rendering="geometricPrecision" shape-rendering="geometricPrecision" transform="matrix(1,0,0,1,-82,-112)" stroke="white">
      <circle r="22.5" clip-path="url(#clipPath2)" cx="390" cy="480" stroke="none"/>
    </g>
    <g text-rendering="geometricPrecision" stroke-miterlimit="1.45" shape-rendering="geometricPrecision" transform="matrix(1,0,0,1,-82,-112)" stroke-linecap="butt">
      <circle fill="none" r="22.5" clip-path="url(#clipPath2)" cx="390" cy="480"/>
      <text x="380.8857" xml:space="preserve" y="484.1543" clip-path="url(#clipPath2)" font-family="sans-serif" stroke="none">k-k</text>
    </g>
    <g fill="white" text-rendering="geometricPrecision" shape-rendering="geometricPrecision" transform="matrix(1,0,0,1,-82,-112)" stroke="white">
      <circle r="22.5" clip-path="url(#clipPath2)" cx="570" cy="480" stroke="none"/>
    </g>
    <g text-rendering="geometricPrecision" stroke-miterlimit="1.45" shape-rendering="geometricPrecision" transform="matrix(1,0,0,1,-82,-112)" stroke-linecap="butt">
      <circle fill="none" r="22.5" clip-path="url(#clipPath2)" cx="570" cy="480"/>
      <text x="560.8857" xml:space="preserve" y="484.1543" clip-path="url(#clipPath2)" font-family="sans-serif" stroke="none">k-k</text>
    </g>
    <g fill="white" text-rendering="geometricPrecision" shape-rendering="geometricPrecision" transform="matrix(1,0,0,1,-82,-112)" stroke="white">
      <circle r="22.5" clip-path="url(#clipPath2)" cx="750" cy="480" stroke="none"/>
    </g>
    <g text-rendering="geometricPrecision" stroke-miterlimit="1.45" shape-rendering="geometricPrecision" transform="matrix(1,0,0,1,-82,-112)" stroke-linecap="butt">
      <circle fill="none" r="22.5" clip-path="url(#clipPath2)" cx="750" cy="480"/>
      <text x="740.8857" xml:space="preserve" y="484.1543" clip-path="url(#clipPath2)" font-family="sans-serif" stroke="none">k-k</text>
    </g>
    <g fill="white" text-rendering="geometricPrecision" shape-rendering="geometricPrecision" transform="matrix(1,0,0,1,-82,-112)" stroke="white">
      <circle r="22.5" clip-path="url(#clipPath2)" cx="660" cy="480" stroke="none"/>
    </g>
    <g text-rendering="geometricPrecision" stroke-miterlimit="1.45" shape-rendering="geometricPrecision" transform="matrix(1,0,0,1,-82,-112)" stroke-linecap="butt">
      <circle fill="none" r="22.5" clip-path="url(#clipPath2)" cx="660" cy="480"/>
      <text x="650.8857" xml:space="preserve" y="484.1543" clip-path="url(#clipPath2)" font-family="sans-serif" stroke="none">k-k</text>
    </g>
    <g fill="white" text-rendering="geometricPrecision" shape-rendering="geometricPrecision" transform="matrix(1,0,0,1,-82,-112)" stroke="white">
      <circle r="22.5" clip-path="url(#clipPath2)" cx="840" cy="480" stroke="none"/>
    </g>
    <g text-rendering="geometricPrecision" stroke-miterlimit="1.45" shape-rendering="geometricPrecision" transform="matrix(1,0,0,1,-82,-112)" stroke-linecap="butt">
      <circle fill="none" r="22.5" clip-path="url(#clipPath2)" cx="840" cy="480"/>
      <text x="830.8857" xml:space="preserve" y="484.1543" clip-path="url(#clipPath2)" font-family="sans-serif" stroke="none">k-k</text>
      <path fill="none" d="M480 172.5 L480 247.5" stroke-width="2" clip-path="url(#clipPath2)" stroke="rgb(56,180,70)"/>
      <path fill="none" d="M459.4392 159.1381 L230.5608 260.8619" stroke-width="2" clip-path="url(#clipPath2)" stroke="rgb(151,21,40)"/>
      <path fill="none" d="M500.5608 159.1381 L729.4393 260.8619" stroke-width="2" clip-path="url(#clipPath2)" stroke="rgb(226,203,73)"/>
      <path fill="none" d="M210 292.5 L210 367.5" stroke-width="2" clip-path="url(#clipPath2)" stroke="rgb(56,180,70)"/>
      <path fill="none" d="M196.5 288 L133.5 372" stroke-width="2" clip-path="url(#clipPath2)" stroke="rgb(151,21,40)"/>
      <path fill="none" d="M223.5 288 L286.5 372" stroke-width="2" clip-path="url(#clipPath2)" stroke="rgb(226,203,73)"/>
      <path fill="none" d="M480 292.5 L480 367.5" stroke-width="2" clip-path="url(#clipPath2)" stroke="rgb(56,180,70)"/>
      <path fill="none" d="M466.5 288 L403.5 372" stroke-width="2" clip-path="url(#clipPath2)" stroke="rgb(151,21,40)"/>
      <path fill="none" d="M493.5 288 L556.5 372" stroke-width="2" clip-path="url(#clipPath2)" stroke="rgb(226,203,73)"/>
      <path fill="none" d="M750 292.5 L750 367.5" stroke-width="2" clip-path="url(#clipPath2)" stroke="rgb(56,180,70)"/>
      <path fill="none" d="M736.5 288 L673.5 372" stroke-width="2" clip-path="url(#clipPath2)" stroke="rgb(151,21,40)"/>
      <path fill="none" d="M763.5 288 L826.5 372" stroke-width="2" clip-path="url(#clipPath2)" stroke="rgb(226,203,73)"/>
    </g>
    <g stroke-linecap="round" transform="matrix(1,0,0,1,-82,-112)" stroke-dashoffset="2" text-rendering="geometricPrecision" shape-rendering="geometricPrecision" stroke-dasharray="0,8" stroke-width="2" stroke-miterlimit="1.45">
      <path fill="none" d="M210 412.5 L210 457.5" clip-path="url(#clipPath2)"/>
      <path fill="none" d="M120 412.5 L120 457.5" clip-path="url(#clipPath2)"/>
      <path fill="none" d="M300 412.5 L300 457.5" clip-path="url(#clipPath2)"/>
      <path fill="none" d="M480 412.5 L480 457.5" clip-path="url(#clipPath2)"/>
      <path fill="none" d="M390 412.5 L390 457.5" clip-path="url(#clipPath2)"/>
      <path fill="none" d="M570 412.5 L570 457.5" clip-path="url(#clipPath2)"/>
      <path fill="none" d="M750 412.5 L750 457.5" clip-path="url(#clipPath2)"/>
      <path fill="none" d="M660 412.5 L660 457.5" clip-path="url(#clipPath2)"/>
      <path fill="none" d="M840 412.5 L840 457.5" clip-path="url(#clipPath2)"/>
    </g>
  </g>
</svg>
