<?xml version="1.0" encoding="UTF-8"?><svg xmlns="http://www.w3.org/2000/svg" xmlns:xlink="http://www.w3.org/1999/xlink" fill-opacity="1" color-rendering="auto" color-interpolation="auto" text-rendering="auto" stroke="black" stroke-linecap="square" width="616" stroke-miterlimit="10" shape-rendering="auto" stroke-opacity="1" fill="black" stroke-dasharray="none" font-weight="normal" stroke-width="1" height="196" font-family="'Dialog'" font-style="normal" stroke-linejoin="miter" font-size="12px" stroke-dashoffset="0" image-rendering="auto">
  <!--Generated by ySVG 2.5-->
  <defs id="genericDefs"/>
  <g>
    <defs id="defs1">
      <clipPath clipPathUnits="userSpaceOnUse" id="clipPath1">
        <path d="M0 0 L616 0 L616 196 L0 196 L0 0 Z"/>
      </clipPath>
      <clipPath clipPathUnits="userSpaceOnUse" id="clipPath2">
        <path d="M172 112 L788 112 L788 308 L172 308 L172 112 Z"/>
      </clipPath>
    </defs>
    <g fill="white" text-rendering="geometricPrecision" shape-rendering="geometricPrecision" transform="matrix(1,0,0,1,-172,-112)" stroke="white">
      <circle r="22.5" clip-path="url(#clipPath2)" cx="480" cy="150" stroke="none"/>
    </g>
    <g text-rendering="geometricPrecision" stroke-miterlimit="1.45" shape-rendering="geometricPrecision" transform="matrix(1,0,0,1,-172,-112)" stroke-linecap="butt">
      <circle fill="none" r="22.5" clip-path="url(#clipPath2)" cx="480" cy="150"/>
      <text x="476.5254" xml:space="preserve" y="154.1543" clip-path="url(#clipPath2)" font-family="sans-serif" stroke="none">k</text>
    </g>
    <g fill="white" text-rendering="geometricPrecision" shape-rendering="geometricPrecision" transform="matrix(1,0,0,1,-172,-112)" stroke="white">
      <circle r="22.5" clip-path="url(#clipPath2)" cx="480" cy="270" stroke="none"/>
    </g>
    <g text-rendering="geometricPrecision" stroke-miterlimit="1.45" shape-rendering="geometricPrecision" transform="matrix(1,0,0,1,-172,-112)" stroke-linecap="butt">
      <circle fill="none" r="22.5" clip-path="url(#clipPath2)" cx="480" cy="270"/>
      <text x="470.543" xml:space="preserve" y="274.1543" clip-path="url(#clipPath2)" font-family="sans-serif" stroke="none">k-1</text>
    </g>
    <g fill="white" text-rendering="geometricPrecision" shape-rendering="geometricPrecision" transform="matrix(1,0,0,1,-172,-112)" stroke="white">
      <circle r="22.5" clip-path="url(#clipPath2)" cx="210" cy="270" stroke="none"/>
    </g>
    <g text-rendering="geometricPrecision" stroke-miterlimit="1.45" shape-rendering="geometricPrecision" transform="matrix(1,0,0,1,-172,-112)" stroke-linecap="butt">
      <circle fill="none" r="22.5" clip-path="url(#clipPath2)" cx="210" cy="270"/>
      <text x="200.543" xml:space="preserve" y="274.1543" clip-path="url(#clipPath2)" font-family="sans-serif" stroke="none">k-1</text>
    </g>
    <g fill="white" text-rendering="geometricPrecision" shape-rendering="geometricPrecision" transform="matrix(1,0,0,1,-172,-112)" stroke="white">
      <circle r="22.5" clip-path="url(#clipPath2)" cx="750" cy="270" stroke="none"/>
    </g>
    <g text-rendering="geometricPrecision" stroke-miterlimit="1.45" shape-rendering="geometricPrecision" transform="matrix(1,0,0,1,-172,-112)" stroke-linecap="butt">
      <circle fill="none" r="22.5" clip-path="url(#clipPath2)" cx="750" cy="270"/>
      <text x="740.543" xml:space="preserve" y="274.1543" clip-path="url(#clipPath2)" font-family="sans-serif" stroke="none">k-1</text>
      <path fill="none" d="M480 172.5 L480 247.5" clip-path="url(#clipPath2)" stroke="rgb(56,180,70)"/>
      <path fill="none" d="M459.4392 159.1381 L230.5608 260.8619" clip-path="url(#clipPath2)" stroke="rgb(151,21,40)"/>
      <path fill="none" d="M500.5608 159.1381 L729.4393 260.8619" clip-path="url(#clipPath2)" stroke="rgb(226,203,73)"/>
    </g>
  </g>
</svg>
