<?xml version="1.0" encoding="UTF-8"?><svg xmlns="http://www.w3.org/2000/svg" xmlns:xlink="http://www.w3.org/1999/xlink" fill-opacity="1" color-rendering="auto" color-interpolation="auto" text-rendering="auto" stroke="black" stroke-linecap="square" width="427" stroke-miterlimit="10" shape-rendering="auto" stroke-opacity="1" fill="black" stroke-dasharray="none" font-weight="normal" stroke-width="1" height="482" font-family="'Dialog'" font-style="normal" stroke-linejoin="miter" font-size="12px" stroke-dashoffset="0" image-rendering="auto">
  <!--Generated by ySVG 2.5-->
  <defs id="genericDefs"/>
  <g>
    <defs id="defs1">
      <clipPath clipPathUnits="userSpaceOnUse" id="clipPath1">
        <path d="M0 0 L427 0 L427 482 L0 482 L0 0 Z"/>
      </clipPath>
      <clipPath clipPathUnits="userSpaceOnUse" id="clipPath2">
        <path d="M67 -441 L494 -441 L494 41 L67 41 L67 -441 Z"/>
      </clipPath>
    </defs>
    <g fill="rgb(235,235,235)" text-rendering="geometricPrecision" shape-rendering="geometricPrecision" transform="matrix(1,0,0,1,-67,441)" stroke="rgb(235,235,235)">
      <rect x="82.375" width="105" height="21.4609" y="-425.4835" clip-path="url(#clipPath2)" stroke="none"/>
    </g>
    <g font-size="15px" stroke-linecap="butt" transform="matrix(1,0,0,1,-67,441)" text-rendering="geometricPrecision" font-family="sans-serif" shape-rendering="geometricPrecision" stroke-miterlimit="1.45">
      <text x="156.0269" xml:space="preserve" y="-409.5602" clip-path="url(#clipPath2)" stroke="none">$A$</text>
      <rect x="82.375" y="-425.4835" clip-path="url(#clipPath2)" fill="none" width="105" stroke-dasharray="6,2" rx="4" ry="4" height="450.8829"/>
    </g>
    <g fill="white" text-rendering="geometricPrecision" shape-rendering="geometricPrecision" transform="matrix(1,0,0,1,-67,441)" stroke="white">
      <circle r="22.5" clip-path="url(#clipPath2)" cx="149.875" cy="-162.6201" stroke="none"/>
    </g>
    <g text-rendering="geometricPrecision" stroke-miterlimit="1.45" shape-rendering="geometricPrecision" transform="matrix(1,0,0,1,-67,441)" stroke-linecap="butt">
      <circle fill="none" r="22.5" clip-path="url(#clipPath2)" cx="149.875" cy="-162.6201"/>
    </g>
    <g fill="white" text-rendering="geometricPrecision" shape-rendering="geometricPrecision" transform="matrix(1,0,0,1,-67,441)" stroke="white">
      <circle r="22.5" clip-path="url(#clipPath2)" cx="149.875" cy="-312.6201" stroke="none"/>
    </g>
    <g text-rendering="geometricPrecision" stroke-miterlimit="1.45" shape-rendering="geometricPrecision" transform="matrix(1,0,0,1,-67,441)" stroke-linecap="butt">
      <circle fill="none" r="22.5" clip-path="url(#clipPath2)" cx="149.875" cy="-312.6201"/>
    </g>
    <g fill="rgb(226,203,73)" text-rendering="geometricPrecision" shape-rendering="geometricPrecision" transform="matrix(1,0,0,1,-67,441)" stroke="rgb(226,203,73)">
      <circle r="22.5" clip-path="url(#clipPath2)" cx="149.875" cy="-12.1006" stroke="none"/>
    </g>
    <g text-rendering="geometricPrecision" stroke-miterlimit="1.45" shape-rendering="geometricPrecision" transform="matrix(1,0,0,1,-67,441)" stroke-linecap="butt">
      <circle fill="none" r="22.5" clip-path="url(#clipPath2)" cx="149.875" cy="-12.1006"/>
    </g>
    <g fill="rgb(56,180,70)" text-rendering="geometricPrecision" shape-rendering="geometricPrecision" transform="matrix(1,0,0,1,-67,441)" stroke="rgb(56,180,70)">
      <circle r="22.5" clip-path="url(#clipPath2)" cx="149.875" cy="-87.1006" stroke="none"/>
    </g>
    <g text-rendering="geometricPrecision" stroke-miterlimit="1.45" shape-rendering="geometricPrecision" transform="matrix(1,0,0,1,-67,441)" stroke-linecap="butt">
      <circle fill="none" r="22.5" clip-path="url(#clipPath2)" cx="149.875" cy="-87.1006"/>
    </g>
    <g fill="rgb(235,235,235)" text-rendering="geometricPrecision" shape-rendering="geometricPrecision" transform="matrix(1,0,0,1,-67,441)" stroke="rgb(235,235,235)">
      <rect x="370.5" width="108.206" height="21.4609" y="-425.4835" clip-path="url(#clipPath2)" stroke="none"/>
    </g>
    <g font-size="15px" stroke-linecap="butt" transform="matrix(1,0,0,1,-67,441)" text-rendering="geometricPrecision" font-family="sans-serif" shape-rendering="geometricPrecision" stroke-miterlimit="1.45">
      <text x="447.3286" xml:space="preserve" y="-409.5602" clip-path="url(#clipPath2)" stroke="none">$B$</text>
      <rect x="370.5" y="-425.4835" clip-path="url(#clipPath2)" fill="none" width="108.206" stroke-dasharray="6,2" rx="4" ry="4" height="450.8829"/>
    </g>
    <g fill="rgb(226,203,73)" text-rendering="geometricPrecision" shape-rendering="geometricPrecision" transform="matrix(1,0,0,1,-67,441)" stroke="rgb(226,203,73)">
      <circle r="22.5" clip-path="url(#clipPath2)" cx="408" cy="-237.6201" stroke="none"/>
    </g>
    <g text-rendering="geometricPrecision" stroke-miterlimit="1.45" shape-rendering="geometricPrecision" transform="matrix(1,0,0,1,-67,441)" stroke-linecap="butt">
      <circle fill="none" r="22.5" clip-path="url(#clipPath2)" cx="408" cy="-237.6201"/>
    </g>
    <g fill="white" text-rendering="geometricPrecision" shape-rendering="geometricPrecision" transform="matrix(1,0,0,1,-67,441)" stroke="white">
      <circle r="22.5" clip-path="url(#clipPath2)" cx="408" cy="-162.6201" stroke="none"/>
    </g>
    <g text-rendering="geometricPrecision" stroke-miterlimit="1.45" shape-rendering="geometricPrecision" transform="matrix(1,0,0,1,-67,441)" stroke-linecap="butt">
      <circle fill="none" r="22.5" clip-path="url(#clipPath2)" cx="408" cy="-162.6201"/>
    </g>
    <g fill="rgb(56,180,70)" text-rendering="geometricPrecision" shape-rendering="geometricPrecision" transform="matrix(1,0,0,1,-67,441)" stroke="rgb(56,180,70)">
      <circle r="22.5" clip-path="url(#clipPath2)" cx="408" cy="-87.1006" stroke="none"/>
    </g>
    <g text-rendering="geometricPrecision" stroke-miterlimit="1.45" shape-rendering="geometricPrecision" transform="matrix(1,0,0,1,-67,441)" stroke-linecap="butt">
      <circle fill="none" r="22.5" clip-path="url(#clipPath2)" cx="408" cy="-87.1006"/>
      <path fill="none" d="M169.3118 -98.4347 L388.5632 -226.286" clip-path="url(#clipPath2)"/>
      <path fill="none" d="M171.4814 -306.3422 L386.3936 -243.898" clip-path="url(#clipPath2)"/>
      <path fill="none" d="M171.4698 -93.4186 L386.4052 -156.3022" clip-path="url(#clipPath2)"/>
      <path fill="none" d="M388.5462 -173.925 L169.3288 -301.3152" clip-path="url(#clipPath2)"/>
      <path fill="none" d="M385.5 -162.6201 L172.375 -162.6201" clip-path="url(#clipPath2)"/>
      <path fill="none" d="M171.4814 -18.3785 L386.3936 -80.8227" clip-path="url(#clipPath2)"/>
      <path fill="none" d="M386.4052 -93.4186 L171.4698 -156.3022" clip-path="url(#clipPath2)"/>
    </g>
  </g>
</svg>
