<?xml version="1.0" encoding="UTF-8"?><svg xmlns="http://www.w3.org/2000/svg" xmlns:xlink="http://www.w3.org/1999/xlink" fill-opacity="1" color-rendering="auto" color-interpolation="auto" text-rendering="auto" stroke="black" stroke-linecap="square" width="476" stroke-miterlimit="10" shape-rendering="auto" stroke-opacity="1" fill="black" stroke-dasharray="none" font-weight="normal" stroke-width="1" height="266" font-family="'Dialog'" font-style="normal" stroke-linejoin="miter" font-size="12px" stroke-dashoffset="0" image-rendering="auto">
  <!--Generated by ySVG 2.5-->
  <defs id="genericDefs"/>
  <g>
    <defs id="defs1">
      <clipPath clipPathUnits="userSpaceOnUse" id="clipPath1">
        <path d="M0 0 L476 0 L476 266 L0 266 L0 0 Z"/>
      </clipPath>
      <clipPath clipPathUnits="userSpaceOnUse" id="clipPath2">
        <path d="M484 207 L960 207 L960 473 L484 473 L484 207 Z"/>
      </clipPath>
    </defs>
    <g fill="rgb(56,180,70)" text-rendering="geometricPrecision" shape-rendering="geometricPrecision" transform="matrix(1,0,0,1,-484,-207)" stroke="rgb(56,180,70)">
      <circle r="22.5" clip-path="url(#clipPath2)" cx="593" cy="245" stroke="none"/>
    </g>
    <g fill="rgb(49,120,102)" text-rendering="geometricPrecision" shape-rendering="geometricPrecision" transform="matrix(1,0,0,1,-484,-207)" stroke="rgb(49,120,102)">
      <circle r="22.5" clip-path="url(#clipPath2)" cx="696" cy="245" stroke="none"/>
      <circle fill="rgb(226,203,73)" r="22.5" clip-path="url(#clipPath2)" cx="522" cy="333" stroke="none"/>
      <circle fill="rgb(226,203,73)" r="22.5" clip-path="url(#clipPath2)" cx="922" cy="333" stroke="none"/>
      <circle fill="rgb(56,180,70)" r="22.5" clip-path="url(#clipPath2)" cx="822" cy="333" stroke="none"/>
      <circle fill="rgb(151,21,40)" r="22.5" clip-path="url(#clipPath2)" cx="922" cy="435" stroke="none"/>
      <circle r="22.5" clip-path="url(#clipPath2)" cx="822" cy="435" stroke="none"/>
    </g>
    <g text-rendering="geometricPrecision" stroke-miterlimit="1.45" shape-rendering="geometricPrecision" transform="matrix(1,0,0,1,-484,-207)" stroke-linecap="butt">
      <path fill="none" d="M615.5 245 L673.5 245" clip-path="url(#clipPath2)"/>
      <path fill="none" d="M578.8717 262.5112 L536.1283 315.4888" clip-path="url(#clipPath2)"/>
      <path fill="none" d="M614.7359 250.8139 L900.2641 327.1862" clip-path="url(#clipPath2)"/>
      <path fill="none" d="M716.9666 253.164 L901.0334 324.836" clip-path="url(#clipPath2)"/>
      <path fill="none" d="M844.5 333 L899.5 333" clip-path="url(#clipPath2)"/>
      <path fill="none" d="M906.2484 418.9333 L837.7516 349.0667" clip-path="url(#clipPath2)"/>
      <path fill="none" d="M922 412.5 L922 355.5" clip-path="url(#clipPath2)"/>
      <path fill="none" d="M822 355.5 L822 412.5" clip-path="url(#clipPath2)"/>
      <path fill="none" d="M543.3024 340.2428 L800.6976 427.7572" clip-path="url(#clipPath2)"/>
      <path fill="none" d="M610.3159 259.3669 L804.6841 420.6331" clip-path="url(#clipPath2)"/>
      <path fill="none" d="M844.5 435 L899.5 435" clip-path="url(#clipPath2)"/>
      <path fill="none" d="M837.7516 418.9333 L906.2484 349.0667" clip-path="url(#clipPath2)"/>
    </g>
  </g>
</svg>
