<?xml version="1.0" encoding="UTF-8"?><svg xmlns="http://www.w3.org/2000/svg" xmlns:xlink="http://www.w3.org/1999/xlink" fill-opacity="1" color-rendering="auto" color-interpolation="auto" text-rendering="auto" stroke="black" stroke-linecap="square" width="476" stroke-miterlimit="10" shape-rendering="auto" stroke-opacity="1" fill="black" stroke-dasharray="none" font-weight="normal" stroke-width="1" height="266" font-family="'Dialog'" font-style="normal" stroke-linejoin="miter" font-size="12px" stroke-dashoffset="0" image-rendering="auto">
  <!--Generated by ySVG 2.5-->
  <defs id="genericDefs"/>
  <g>
    <defs id="defs1">
      <clipPath clipPathUnits="userSpaceOnUse" id="clipPath1">
        <path d="M0 0 L476 0 L476 266 L0 266 L0 0 Z"/>
      </clipPath>
      <clipPath clipPathUnits="userSpaceOnUse" id="clipPath2">
        <path d="M771 449 L1247 449 L1247 715 L771 715 L771 449 Z"/>
      </clipPath>
    </defs>
    <g fill="white" text-rendering="geometricPrecision" shape-rendering="geometricPrecision" transform="matrix(1,0,0,1,-771,-449)" stroke="white">
      <circle r="22.5" clip-path="url(#clipPath2)" cx="880" cy="487" stroke="none"/>
    </g>
    <g text-rendering="geometricPrecision" stroke-miterlimit="1.45" shape-rendering="geometricPrecision" transform="matrix(1,0,0,1,-771,-449)" stroke-linecap="butt">
      <circle fill="none" r="22.5" clip-path="url(#clipPath2)" cx="880" cy="487"/>
    </g>
    <g fill="white" text-rendering="geometricPrecision" shape-rendering="geometricPrecision" transform="matrix(1,0,0,1,-771,-449)" stroke="white">
      <circle r="22.5" clip-path="url(#clipPath2)" cx="983" cy="487" stroke="none"/>
    </g>
    <g text-rendering="geometricPrecision" stroke-miterlimit="1.45" shape-rendering="geometricPrecision" transform="matrix(1,0,0,1,-771,-449)" stroke-linecap="butt">
      <circle fill="none" r="22.5" clip-path="url(#clipPath2)" cx="983" cy="487"/>
    </g>
    <g fill="white" text-rendering="geometricPrecision" shape-rendering="geometricPrecision" transform="matrix(1,0,0,1,-771,-449)" stroke="white">
      <circle r="22.5" clip-path="url(#clipPath2)" cx="809" cy="575" stroke="none"/>
    </g>
    <g text-rendering="geometricPrecision" stroke-miterlimit="1.45" shape-rendering="geometricPrecision" transform="matrix(1,0,0,1,-771,-449)" stroke-linecap="butt">
      <circle fill="none" r="22.5" clip-path="url(#clipPath2)" cx="809" cy="575"/>
    </g>
    <g fill="white" text-rendering="geometricPrecision" shape-rendering="geometricPrecision" transform="matrix(1,0,0,1,-771,-449)" stroke="white">
      <circle r="22.5" clip-path="url(#clipPath2)" cx="1109" cy="677" stroke="none"/>
    </g>
    <g text-rendering="geometricPrecision" stroke-miterlimit="1.45" shape-rendering="geometricPrecision" transform="matrix(1,0,0,1,-771,-449)" stroke-linecap="butt">
      <circle fill="none" r="22.5" clip-path="url(#clipPath2)" cx="1109" cy="677"/>
      <text x="1092.3319" y="681.656" clip-path="url(#clipPath2)" fill="rgb(49,120,102)" font-family="sans-serif" stroke="none" xml:space="preserve">$u_3$</text>
    </g>
    <g fill="white" text-rendering="geometricPrecision" shape-rendering="geometricPrecision" transform="matrix(1,0,0,1,-771,-449)" stroke="white">
      <circle r="22.5" clip-path="url(#clipPath2)" cx="1209" cy="677" stroke="none"/>
    </g>
    <g text-rendering="geometricPrecision" stroke-miterlimit="1.45" shape-rendering="geometricPrecision" transform="matrix(1,0,0,1,-771,-449)" stroke-linecap="butt">
      <circle fill="none" r="22.5" clip-path="url(#clipPath2)" cx="1209" cy="677"/>
      <text x="1192.3319" y="681.656" clip-path="url(#clipPath2)" fill="rgb(151,21,40)" font-family="sans-serif" stroke="none" xml:space="preserve">$u_4$</text>
    </g>
    <g fill="white" text-rendering="geometricPrecision" shape-rendering="geometricPrecision" transform="matrix(1,0,0,1,-771,-449)" stroke="white">
      <circle r="22.5" clip-path="url(#clipPath2)" cx="1109" cy="575" stroke="none"/>
    </g>
    <g text-rendering="geometricPrecision" stroke-miterlimit="1.45" shape-rendering="geometricPrecision" transform="matrix(1,0,0,1,-771,-449)" stroke-linecap="butt">
      <circle fill="none" r="22.5" clip-path="url(#clipPath2)" cx="1109" cy="575"/>
      <text x="1092.3319" y="579.656" clip-path="url(#clipPath2)" fill="rgb(56,180,70)" font-family="sans-serif" stroke="none" xml:space="preserve">$u_1$</text>
    </g>
    <g fill="white" text-rendering="geometricPrecision" shape-rendering="geometricPrecision" transform="matrix(1,0,0,1,-771,-449)" stroke="white">
      <circle r="22.5" clip-path="url(#clipPath2)" cx="1209" cy="575" stroke="none"/>
    </g>
    <g text-rendering="geometricPrecision" stroke-miterlimit="1.45" shape-rendering="geometricPrecision" transform="matrix(1,0,0,1,-771,-449)" stroke-linecap="butt">
      <circle fill="none" r="22.5" clip-path="url(#clipPath2)" cx="1209" cy="575"/>
      <text x="1192.3319" y="579.656" clip-path="url(#clipPath2)" fill="rgb(226,203,73)" font-family="sans-serif" stroke="none" xml:space="preserve">$u_2$</text>
      <path fill="none" d="M902.5 487 L960.5 487" clip-path="url(#clipPath2)"/>
      <path fill="none" d="M865.8717 504.5112 L823.1283 557.4888" clip-path="url(#clipPath2)"/>
      <path fill="none" d="M897.3159 501.3669 L1091.6841 662.6331" clip-path="url(#clipPath2)"/>
      <path fill="none" d="M830.3024 582.2428 L1087.6976 669.7572" clip-path="url(#clipPath2)"/>
      <path fill="none" d="M1131.5 677 L1186.5 677" clip-path="url(#clipPath2)"/>
      <path fill="none" d="M1193.2484 660.9333 L1124.7516 591.0667" clip-path="url(#clipPath2)"/>
      <path fill="none" d="M1109 597.5 L1109 654.5" clip-path="url(#clipPath2)"/>
      <path fill="none" d="M1124.7516 660.9333 L1193.2484 591.0667" clip-path="url(#clipPath2)"/>
      <path fill="none" d="M1131.5 575 L1186.5 575" clip-path="url(#clipPath2)"/>
      <path fill="none" d="M1209 654.5 L1209 597.5" clip-path="url(#clipPath2)"/>
      <path fill="none" d="M901.7359 492.8138 L1187.2642 569.1862" clip-path="url(#clipPath2)"/>
      <path fill="none" d="M1003.9666 495.164 L1188.0333 566.836" clip-path="url(#clipPath2)"/>
    </g>
  </g>
</svg>
